<svg width="100" height="23" viewBox="0 0 100 23" fill="none" xmlns="http://www.w3.org/2000/svg">
<g id="select-logo-lockup-rgb-colour-2 1">
<g id="Group">
<path id="Vector" d="M31.8072 15.8125C32.5529 15.8125 33.2584 15.5502 33.2584 14.7241C33.2584 13.7572 32.3107 13.5351 30.6182 13.2125C27.4343 12.6075 25.4785 11.4799 25.4785 8.59644C25.4785 5.55323 28.6222 4.24268 31.3227 4.24268C34.3459 4.24268 37.3087 5.51202 37.5308 9.70398H34.0242C33.9237 8.01051 32.8755 7.32509 31.1428 7.32509C30.1348 7.32509 29.0665 7.82861 29.0665 8.67484C29.0665 9.52107 29.7308 10.0859 31.7469 10.4889C35.0725 11.1532 36.9268 12.101 36.9268 14.7221C36.9268 17.4839 34.5891 18.7532 31.6253 18.7532C28.2192 18.7532 26.1639 16.7583 25.982 13.916H29.5489C29.6102 15.1271 30.5167 15.8125 31.8072 15.8125ZM42.2142 7.55021V10.0497H48.2403V12.8919H42.2142V15.4507H48.9258V18.5542H38.6474V4.44569H48.9258V7.55021H42.2142ZM60.6494 15.3693V18.5532H50.2695V4.44569H53.8775V15.3693H60.6494ZM65.4634 7.55021V10.0497H71.4896V12.8919H65.4634V15.4507H72.175V18.5542H61.8956V4.44569H72.174V7.55021H65.4634ZM80.0835 18.7562C75.5489 18.7562 72.9489 15.8949 72.9489 11.5211C72.9489 7.1472 75.569 4.24469 79.9629 4.24469C83.9127 4.24469 86.2313 6.54217 86.6142 9.6869H83.0062C82.7639 8.21554 81.8172 7.32911 80.0433 7.32911C77.766 7.32911 76.576 8.92107 76.576 11.4819C76.576 14.2226 77.8655 15.8145 80.1036 15.8145C82.3418 15.8145 82.9649 14.2829 83.167 12.8517H86.775C86.4735 16.8407 83.8524 18.7552 80.0835 18.7562ZM99.4594 7.55021H95.1258V18.5552H91.4986V7.55021H87.1861V4.44569H99.4594V7.55021Z" fill="white" style="fill:white;fill-opacity:1;"/>
<path id="Vector_2" d="M18.9551 1.38916H5.5973C2.80534 1.38916 0.541016 3.65147 0.541016 6.44444C0.541016 9.2364 2.80534 11.4997 5.5973 11.4997H0.541016V21.6103H13.8988C16.6908 21.6103 18.9551 19.3469 18.9551 16.554C18.9551 13.762 16.6918 11.4977 13.8988 11.4977H18.9551V1.38916Z" fill="#38BDF8" style="fill:#38BDF8;fill:color(display-p3 0.2196 0.7412 0.9725);fill-opacity:1;"/>
</g>
</g>
</svg>
