<svg width="15" height="15" viewBox="0 0 15 15" fill="none" xmlns="http://www.w3.org/2000/svg">
<g id="icons8-stars (2) 1" clip-path="url(#clip0_3486_15153)">
<path id="Vector" d="M0.929667 8.10566L4.11292 6.77974L5.43883 3.59649C5.52983 3.37891 5.88683 3.37891 5.97783 3.59649L7.30375 6.77974L10.487 8.10566C10.5961 8.15116 10.6667 8.25733 10.6667 8.37516C10.6667 8.49299 10.5961 8.59916 10.487 8.64466L7.30375 9.97058L5.97783 13.1538C5.93233 13.2629 5.82617 13.3335 5.70833 13.3335C5.5905 13.3335 5.48433 13.2629 5.43883 13.1538L4.11292 9.97058L0.929667 8.64466C0.820584 8.59916 0.75 8.49299 0.75 8.37516C0.75 8.25733 0.820584 8.15116 0.929667 8.10566ZM8.53283 4.01474L10.5815 3.33166L11.2646 1.28299C11.3445 1.04499 11.7388 1.04499 11.8182 1.28299L12.5018 3.33166L14.5505 4.01474C14.6695 4.05499 14.75 4.16641 14.75 4.29183C14.75 4.41724 14.6695 4.52866 14.5505 4.56891L12.5013 5.25199L11.8182 7.30124C11.7785 7.41966 11.6671 7.50016 11.5417 7.50016C11.4163 7.50016 11.3048 7.41966 11.2646 7.30066L10.5815 5.25141L8.53225 4.56833C8.41383 4.52866 8.33333 4.41724 8.33333 4.29183C8.33333 4.16641 8.41383 4.05499 8.53283 4.01474ZM9.6995 11.5981L10.8738 11.2067L11.2652 10.0324C11.3451 9.79441 11.7394 9.79441 11.8188 10.0324L12.2102 11.2067L13.3844 11.5981C13.5028 11.6383 13.5833 11.7497 13.5833 11.8752C13.5833 12.0006 13.5028 12.112 13.3838 12.1522L12.2096 12.5437L11.8182 13.7179C11.7785 13.8363 11.6671 13.9168 11.5417 13.9168C11.4163 13.9168 11.3048 13.8363 11.2646 13.7173L10.8732 12.5431L9.69892 12.1517C9.5805 12.112 9.5 12.0006 9.5 11.8752C9.5 11.7497 9.5805 11.6383 9.6995 11.5981Z" fill="#38BDF9" style="fill:#38BDF9;fill:color(display-p3 0.2196 0.7412 0.9765);fill-opacity:1;"/>
</g>
<defs>
<clipPath id="clip0_3486_15153">
<rect width="14" height="14" fill="white" style="fill:white;fill-opacity:1;" transform="matrix(-1 0 0 1 14.75 0.5)"/>
</clipPath>
</defs>
</svg>
